<svg xmlns="http://www.w3.org/2000/svg" viewBox="0 0 278 278"><defs><style>.cls-1{fill:#ed1e79;}.cls-1,.cls-2{stroke:#ed1e79;}.cls-1,.cls-2,.cls-3{stroke-miterlimit:10;stroke-width:2px;}.cls-2{fill:none;}.cls-3{fill:#fff;stroke:#fff;}</style></defs><g id="Layer_2" data-name="Layer 2"><g id="Layer_2-2" data-name="Layer 2"><circle class="cls-1" cx="139" cy="139" r="138"/><path class="cls-2" d="M101.41,224.05h0"/><path class="cls-1" d="M85.25,127.85s0,0,0,0"/><path class="cls-1" d="M198.7,127.86s0,0,0,0"/><path class="cls-2" d="M182,224.43l0,0"/><path class="cls-3" d="M235.14,141.56c-.47-.88-1-1.73-1.53-2.56a6,6,0,0,1-3.33-4.25,32.57,32.57,0,0,0-33.58-8.89s0,0,0,0,0,0,0,0A32.5,32.5,0,0,0,140,95.06a32.51,32.51,0,0,0-56.72,30.79s0,0,0,0,0,0,0,0A32.5,32.5,0,0,0,45.61,173.6h0c.46.82,20.43,36.72,54.43,48.67,0,0,40.71,15.91,80.28,0,27.12-10.91,45.72-36.13,52.16-45.92l0,0a32.51,32.51,0,0,0,2.63-34.76ZM75,168.87a9,9,0,1,1,8.5-9A8.76,8.76,0,0,1,75,168.87Zm92.19-60.3a9,9,0,1,1-8.5,9A8.76,8.76,0,0,1,167.16,108.57Zm-52.69-.2a9,9,0,1,1-8.5,9A8.76,8.76,0,0,1,114.47,108.37Zm48.31,96.34c-8.05,2.11-17-1-23-7.75h0c-6,6.78-14.94,9.86-23,7.75-10.6-2.78-18.15-14.16-16.5-26.74.07-.56.18-1.33.36-2.25a36.76,36.76,0,0,1,2.14-6.75c2.27-5.1,7.57-10.31,8.5-11.24A84.18,84.18,0,0,1,131.77,143c5.25-2.75,8-4.24,8-4.24h0s2.75,1.49,8,4.24a84.18,84.18,0,0,1,20.49,14.75c.93.93,6.23,6.14,8.49,11.24a36.34,36.34,0,0,1,2.15,6.75c.18.92.29,1.69.35,2.25C180.93,190.55,173.37,201.93,162.78,204.71Zm45.38-35.14a9,9,0,1,1,8.5-9A8.76,8.76,0,0,1,208.16,169.57Z"/><path class="cls-1" d="M235.61,141a32.64,32.64,0,0,0-3.33-4.25"/><path class="cls-1" d="M164.78,206.71c-8.05,2.11-17-1-23-7.75h0c-6,6.78-14.94,9.86-23,7.75-10.6-2.78-18.15-14.16-16.5-26.74.07-.56.18-1.33.36-2.25a36.76,36.76,0,0,1,2.14-6.75c2.27-5.1,7.57-10.31,8.5-11.24A84.18,84.18,0,0,1,133.77,145c5.25-2.75,8-4.24,8-4.24h0s2.75,1.49,8,4.24a84.18,84.18,0,0,1,20.49,14.75c.93.93,6.23,6.14,8.49,11.24a36.34,36.34,0,0,1,2.15,6.75c.18.92.29,1.69.35,2.25C182.93,192.55,175.37,203.93,164.78,206.71Z"/><ellipse class="cls-1" cx="76.97" cy="161.87" rx="8.5" ry="9"/><ellipse class="cls-1" cx="210.16" cy="162.57" rx="8.5" ry="9"/><ellipse class="cls-1" cx="116.47" cy="119.37" rx="8.5" ry="9"/><ellipse class="cls-1" cx="169.16" cy="119.57" rx="8.5" ry="9"/><circle class="cls-3" cx="43.47" cy="135.87" r="6"/><circle class="cls-3" cx="94.16" cy="83.57" r="6"/><circle class="cls-3" cx="191.16" cy="84.57" r="6"/><path class="cls-3" d="M244.16,135.57a6,6,0,0,1-6,6,5.88,5.88,0,0,1-2.55-.57,6,6,0,0,1-3.33-4.25,5.76,5.76,0,0,1-.12-1.18,6,6,0,0,1,12,0Z"/></g></g></svg>